<svg xmlns="http://www.w3.org/2000/svg" width="1200" height="630" viewBox="0 0 1200 630">
  <defs>
    <linearGradient id="g1" x1="0" y1="0" x2="1" y2="1">
      <stop offset="0" stop-color="#54e0ff"/>
      <stop offset="1" stop-color="#7c4dff"/>
    </linearGradient>
    <radialGradient id="r" cx="0.15" cy="0.1" r="1">
      <stop offset="0" stop-color="#0f1a24"/>
      <stop offset="1" stop-color="#0a0b0f"/>
    </radialGradient>
  </defs>
  <rect width="1200" height="630" fill="url(#r)"/>
  <g opacity="0.25" stroke="#54e0ff" stroke-opacity="0.4">
    <g transform="translate(0,0)">
      <path d="M0 80 L1200 80"/>
      <path d="M0 160 L1200 160"/>
      <path d="M0 240 L1200 240"/>
      <path d="M0 320 L1200 320"/>
      <path d="M0 400 L1200 400"/>
      <path d="M0 480 L1200 480"/>
      <path d="M0 560 L1200 560"/>
    </g>
    <g transform="translate(0,0)">
      <path d="M80 0 L80 630"/>
      <path d="M160 0 L160 630"/>
      <path d="M240 0 L240 630"/>
      <path d="M320 0 L320 630"/>
      <path d="M400 0 L400 630"/>
      <path d="M480 0 L480 630"/>
      <path d="M560 0 L560 630"/>
      <path d="M640 0 L640 630"/>
      <path d="M720 0 L720 630"/>
      <path d="M800 0 L800 630"/>
      <path d="M880 0 L880 630"/>
      <path d="M960 0 L960 630"/>
      <path d="M1040 0 L1040 630"/>
      <path d="M1120 0 L1120 630"/>
    </g>
  </g>
  <g transform="translate(120, 150)">
    <text x="0" y="0" fill="#e6f7ff" font-family="Inter, Arial, sans-serif" font-size="56" font-weight="800">
      Lucas de Oliveira Lessa
    </text>
    <text x="0" y="62" fill="#b7c6d6" font-family="Inter, Arial, sans-serif" font-size="26" font-weight="600">
      Eng. da Computação • Product Owner • Project Manager • DevOps
    </text>
  </g>
  <g transform="translate(120, 320)">
    <rect x="0" y="-36" width="960" height="120" rx="16" fill="rgba(255,255,255,0.06)" stroke="rgba(255,255,255,0.12)"/>
    <text x="24" y="0" fill="#dfe6ee" font-family="Inter, Arial, sans-serif" font-size="24" font-weight="700">Competências</text>
    <text x="24" y="36" fill="#c9d2de" font-family="Inter, Arial, sans-serif" font-size="20">Firmware C/C++ & Python • Sensores (I²C, SPI, UART) • Condicionamento de Sinal • Cloud & DevOps</text>
  </g>
  <g transform="translate(960, 520)">
    <circle cx="0" cy="0" r="6" fill="url(#g1)"/>
    <text x="16" y="8" fill="#cbd7e6" font-family="Inter, Arial, sans-serif" font-size="16">lucaslessa.alutechnology.tech</text>
  </g>
</svg>
